<?xml version="1.0" encoding="utf-8"?>
<!-- Generator: Adobe Illustrator 23.0.1, SVG Export Plug-In . SVG Version: 6.00 Build 0)  -->
<svg version="1.1" id="Design" xmlns="http://www.w3.org/2000/svg" xmlns:xlink="http://www.w3.org/1999/xlink" x="0px" y="0px"
	 viewBox="0 0 160 160" style="enable-background:new 0 0 160 160;" xml:space="preserve">
<style type="text/css">
	.st0{fill:#1A1A1A;}
</style>
<g>
	<g>
		<path class="st0" d="M104.8,66.1c0,0-0.1-1.5-1.5-1.5H56.8c-1.4,0-1.5,1.5-1.5,1.5v4.6h49.5L104.8,66.1L104.8,66.1z M49,50.6h12.4
			v-3.1H46V63H49V50.6z M55.2,92.8c0,1.4,1.7,2.6,3.1,2.6h43.3c1.4,0,3.1-1.7,3.1-3.1V76.9H55.2L55.2,92.8z M58.3,80h43.3v10.8
			c0,0-0.1,1.5-1.5,1.5H59.9c-1.4,0-1.5-1.5-1.5-1.5L58.3,80L58.3,80z M49,97H46v15.5h15.5v-3.1H49V97z M98.6,47.5v3.1H111V63h3.1
			V47.5H98.6z M111,109.4H98.6v3.1H114V97H111L111,109.4L111,109.4z M98.6,83.1h-6.2v6.2h6.2V83.1z"/>
	</g>
</g>
<g>
	<path d="M297.6,47.7c1.7,0.4,2.9,1.4,3.5,3c0.3,0.7,0.4,1.4,0.5,2.1c0.4,1.9,0.8,3.9,1.2,5.9c0.9,0,1.9,0,2.8,0
		c0,0,4.9-0.7,4.9,4.4c0,12.1,0,24.2,0,36.3c0,0.1-0.1,0.2-0.1,0.3c-0.7,2.6-2.5,3.9-5.2,3.9c-10.1,0-20.1,0-30.2,0
		c-0.4,0-0.6,0-0.9,0.4c-1.9,3.7-4.8,6.2-8.7,7.6c-1.1,0.4-2.4,0.6-3.5,0.9c-0.9,0-1.8,0-2.7,0c-0.1,0-0.3-0.1-0.4-0.1
		c-5.8-0.9-9.9-4-12.2-9.3c-0.5-1.2-0.7-2.6-1-3.9c0-0.8,0-1.7,0-2.5c0-0.1,0.1-0.2,0.1-0.4c0.8-5.2,3.6-8.9,8.2-11.3
		c0.5-0.3,0.7-0.5,0.7-1c0-6.5,0-13,0-19.5c0-1.9,0.8-3.4,1.8-4.9c0.6-0.8,1.4-1.3,2.4-1.6c9.2-2.5,18.4-5.1,27.6-7.6
		c3.4-0.9,6.7-1.9,10.1-2.8C296.9,47.4,297.6,47.7,297.6,47.7z M307.8,72.6c0-0.3,0-0.5,0-0.7c0-2.6,0-5.3,0-7.9
		c0-0.3,0-0.5-0.1-0.8c-0.2-1.3-0.8-1.8-2.1-1.8c-15.5,0-30.9,0-46.4,0c-1.4,0-2,0.6-2.1,2c0,0.3,0,0.5,0,0.8c0,6.3,0,12.6,0,18.8
		c0,0.2,0,0.5,0,0.7c5.2-1,9.8,0.2,13.7,3.8c3.9,3.6,5.3,8.1,4.4,13.3c0.1,0,0.2,0,0.3,0c10.1,0,20.3,0,30.4,0
		c0.9,0,1.5-0.5,1.7-1.4c0.1-0.4,0.1-0.8,0.1-1.1c0-2.6,0-5.2,0-7.7c0-0.2,0-0.4,0-0.7c-0.3,0-0.6,0-0.8,0c-4.5,0-9.1,0-13.6,0
		c-1.3,0-1.8-0.5-1.8-1.8c0-4.5,0-9.1,0-13.6c0-1.4,0.4-1.9,1.8-1.9c4.5,0,9,0,13.4,0C307.2,72.6,307.4,72.6,307.8,72.6z
		 M260.9,109.8c0.4,0,1.2-0.1,1.9-0.2c8.9-1.4,13-12.1,7.4-19.1c-3.1-3.8-7.2-5-11.9-4.3c-7.1,1-11.6,7.9-9.7,14.8
		C250.1,106.3,254.8,109.8,260.9,109.8z M300,58.6c-0.5-2.4-1-4.8-1.6-7.2c-0.3-1.1-1-1.3-2.2-1c-9.6,2.6-19.2,5.3-28.9,8
		c-0.2,0.1-0.4,0.1-0.5,0.2c0,0,0,0,0,0.1C277.9,58.6,288.9,58.6,300,58.6z M307.7,87.1c0-4,0-7.9,0-11.8c-4.5,0-8.9,0-13.3,0
		c0,3.9,0,7.8,0,11.8C298.8,87.1,303.2,87.1,307.7,87.1z"/>
	<path d="M259.2,99.3c-1.4,0-2.7,0-4,0c-0.6,0-1.1-0.3-1.3-0.8c-0.2-0.5-0.2-1.1,0.2-1.4c0.3-0.3,0.8-0.4,1.2-0.5c1-0.1,2.1,0,3.1,0
		c0.2,0,0.4,0,0.7,0c0-0.3,0-0.5,0-0.7c0-1.1,0-2.2,0-3.2c0-0.9,0.6-1.4,1.4-1.4c0.8,0,1.3,0.6,1.3,1.5c0,1.3,0,2.6,0,3.9
		c1.3,0,2.6,0,3.9,0c0.8,0,1.4,0.4,1.5,1.1c0.2,0.9-0.4,1.6-1.4,1.6c-1,0-2.1,0-3.1,0c-0.2,0-0.5,0-0.8,0c0,1.3,0,2.6,0,3.9
		c0,0.8-0.4,1.3-1.1,1.4c-0.9,0.2-1.6-0.4-1.6-1.3c0-1.1,0-2.2,0-3.2C259.2,99.8,259.2,99.6,259.2,99.3z"/>
	<path d="M299,81.2c0-0.2,0-0.3,0.1-0.5c0.2-1.1,1.1-1.8,2-1.8c0.9,0,1.8,0.8,1.9,1.9c0.1,0.4,0,0.8,0,1.1c-0.2,1-1.1,1.7-2,1.7
		c-0.9,0-1.8-0.9-1.9-1.9C299,81.5,299.1,81.4,299,81.2z"/>
</g>
<g>
	<g>
		<g>
			<path d="M478.3,88.6c-0.7,0-1.4-0.4-2.1-0.8c-0.4-0.2-0.9-0.6-1.2-0.6s-0.8,0.3-1.2,0.6c-0.7,0.4-1.6,0.9-2.4,0.7
				c-0.9-0.2-1.5-0.9-2-1.6c-0.3-0.4-0.7-0.8-0.9-0.9c-0.2-0.1-0.8,0-1.3,0.1c-0.9,0.2-1.9,0.2-2.5-0.1c-0.8-0.5-1.1-1.3-1.3-2.1
				c-0.2-0.5-0.3-1-0.6-1.2c-0.2-0.2-0.8-0.2-1.3-0.3c-0.8-0.1-1.7-0.2-2.3-1c-0.6-0.7-0.6-1.6-0.5-2.5c0-0.5,0-1.1-0.1-1.3
				c-0.2-0.2-0.7-0.5-1.1-0.7c-0.7-0.4-1.6-0.8-1.9-1.7c-0.3-0.8,0-1.7,0.3-2.5c0.2-0.5,0.4-1,0.3-1.3c-0.1-0.2-0.4-0.7-0.7-1.1
				c-0.6-0.7-1.2-1.3-1.2-2.2c0-0.9,0.7-1.6,1.2-2.2c0.3-0.3,0.7-0.8,0.7-1.1c0.1-0.3-0.2-0.8-0.3-1.3c-0.3-0.7-0.7-1.6-0.3-2.5
				c0.3-0.8,1.2-1.3,1.9-1.7c0.4-0.2,0.9-0.5,1.1-0.7c0.2-0.2,0.2-0.8,0.1-1.3c0-0.8-0.1-1.8,0.5-2.5c0.6-0.7,1.5-0.8,2.3-1
				c0.5-0.1,1.1-0.2,1.3-0.3c0.2-0.2,0.4-0.7,0.6-1.2c0.2-0.8,0.6-1.7,1.3-2.1c0.7-0.4,1.6-0.2,2.6-0.1c0.6,0.1,1.1,0.2,1.3,0.1
				c0.2-0.1,0.6-0.6,0.9-0.9c0.5-0.7,1.2-1.4,2-1.6c0.8-0.2,1.6,0.3,2.4,0.7c0.4,0.2,0.9,0.6,1.2,0.6s0.8-0.3,1.2-0.6
				c0.7-0.4,1.5-0.9,2.4-0.7c0.9,0.2,1.5,0.9,2,1.6c0.3,0.4,0.7,0.8,0.9,0.9c0.2,0.1,0.8,0,1.3-0.1c0.9-0.2,1.9-0.2,2.5,0.1
				c0.8,0.5,1.1,1.3,1.3,2.1c0.2,0.5,0.3,1,0.6,1.2c0.2,0.2,0.8,0.2,1.3,0.3c0.8,0.1,1.7,0.2,2.3,1c0.6,0.7,0.6,1.6,0.5,2.5
				c0,0.5,0,1.1,0.1,1.3c0.2,0.2,0.7,0.5,1.1,0.7c0.7,0.4,1.6,0.8,1.9,1.7c0.3,0.8,0,1.7-0.3,2.5c-0.2,0.5-0.4,1-0.3,1.3
				c0.1,0.2,0.4,0.7,0.7,1.1c0.6,0.7,1.2,1.3,1.2,2.2c0,0.9-0.7,1.6-1.2,2.2c-0.3,0.3-0.7,0.8-0.7,1.1c-0.1,0.3,0.2,0.8,0.3,1.3
				c0.3,0.7,0.7,1.6,0.3,2.5c-0.3,0.8-1.2,1.3-1.9,1.7c-0.4,0.2-0.9,0.5-1.1,0.7c-0.2,0.2-0.2,0.8-0.1,1.3c0,0.8,0.1,1.8-0.5,2.5
				s-1.5,0.8-2.3,1c-0.5,0.1-1.1,0.2-1.3,0.3c-0.2,0.2-0.4,0.7-0.6,1.2c-0.2,0.8-0.6,1.7-1.3,2.1c-0.7,0.4-1.6,0.2-2.6,0.1
				c-0.6-0.1-1.1-0.2-1.3-0.1c-0.2,0.1-0.6,0.6-0.9,0.9c-0.5,0.7-1.2,1.4-2,1.6C478.5,88.6,478.3,88.6,478.3,88.6z M475,85.6
				c0.7,0,1.5,0.4,2.1,0.8c0.4,0.2,0.9,0.6,1.2,0.6h0.1c0.2-0.1,0.7-0.6,1-1c0.5-0.6,1-1.2,1.6-1.5c0.7-0.2,1.5-0.1,2.2,0.1
				c0.6,0.1,1.2,0.2,1.4,0.1c0.2-0.2,0.4-0.7,0.6-1.2c0.2-0.7,0.5-1.5,1.1-2s1.3-0.6,2.1-0.7c0.5-0.1,1.2-0.2,1.3-0.4
				c0.2-0.2,0.2-0.8,0.2-1.4c0-0.7,0-1.6,0.3-2.2c0.4-0.7,1.1-1,1.7-1.4c0.5-0.2,1-0.6,1.2-0.8c0.1-0.2-0.2-0.8-0.3-1.3
				c-0.2-0.7-0.6-1.4-0.4-2.2c0.2-0.7,0.7-1.3,1.2-1.9c0.3-0.4,0.7-0.9,0.7-1.2c0-0.3-0.4-0.7-0.7-1.2c-0.5-0.6-1-1.2-1.2-1.9
				s0.2-1.5,0.4-2.2c0.2-0.5,0.4-1.1,0.3-1.3c-0.1-0.2-0.7-0.6-1.2-0.8c-0.7-0.3-1.3-0.7-1.7-1.4s-0.3-1.5-0.3-2.2
				c0-0.5,0-1.2-0.2-1.4c-0.2-0.2-0.8-0.3-1.3-0.4c-0.7-0.1-1.5-0.2-2.1-0.7c-0.6-0.5-0.8-1.2-1.1-2c-0.2-0.5-0.3-1.1-0.6-1.2
				c-0.2-0.1-0.7,0-1.4,0.1c-0.7,0.2-1.6,0.2-2.2,0.1c-0.7-0.2-1.2-0.8-1.6-1.5c-0.3-0.4-0.7-0.9-1-1c-0.3,0-0.8,0.3-1.2,0.6
				c-0.7,0.4-1.3,0.8-2.1,0.8c-0.7,0-1.5-0.4-2.1-0.8c-0.4-0.2-0.9-0.6-1.2-0.6c-0.3,0.1-0.7,0.6-1.1,1c-0.5,0.6-1,1.2-1.6,1.5
				c-0.7,0.2-1.5,0.1-2.2-0.1c-0.6-0.1-1.2-0.2-1.4-0.1c-0.2,0.2-0.4,0.7-0.6,1.2c-0.2,0.7-0.5,1.5-1.1,2c-0.6,0.5-1.3,0.6-2.1,0.7
				c-0.5,0.1-1.2,0.2-1.3,0.4c-0.2,0.2-0.2,0.8-0.2,1.4c0,0.7,0,1.6-0.3,2.2c-0.4,0.7-1.1,1-1.7,1.4c-0.5,0.2-1,0.6-1.2,0.8
				c-0.1,0.2,0.2,0.8,0.3,1.3c0.2,0.7,0.6,1.4,0.4,2.2c-0.2,0.7-0.7,1.3-1.2,1.9c-0.3,0.4-0.7,0.9-0.7,1.2c0,0.3,0.4,0.7,0.7,1.2
				c0.5,0.6,1,1.2,1.2,1.9c0.2,0.7-0.2,1.5-0.4,2.2c-0.2,0.5-0.4,1.1-0.3,1.3s0.7,0.6,1.2,0.8c0.7,0.3,1.3,0.7,1.7,1.4
				c0.4,0.7,0.3,1.5,0.3,2.2c0,0.5,0,1.2,0.2,1.4s0.8,0.3,1.3,0.4c0.7,0.1,1.5,0.2,2.1,0.7c0.6,0.5,0.8,1.2,1.1,2
				c0.2,0.5,0.3,1.1,0.6,1.2c0.2,0.1,0.7,0,1.4-0.1c0.7-0.2,1.6-0.2,2.2-0.1c0.7,0.2,1.2,1.1,1.6,1.6c0.3,0.4,0.7,1.2,1,1.2l0,0
				c0.3,0,0.8-0.5,1.2-0.7C473.5,86.2,474.2,85.6,475,85.6z"/>
		</g>
		<g>
			<path d="M469.6,106.7c-0.3,0-0.7-0.1-1-0.3l-4.1-2.9l-5,0.7c-0.6,0.1-1.2-0.1-1.6-0.6s-0.6-1-0.4-1.6l3.9-16.6
				c0.1-0.4,0.6-0.7,1-0.6c0.4,0.1,0.7,0.6,0.6,1l-3.9,16.6v0.1h0.1l5-0.7c0.4-0.1,0.9,0,1.2,0.3l4.1,2.9c0,0,0,0,0.1,0
				s0.1-0.1,0.1-0.1l3.5-14.8c0.1-0.4,0.6-0.7,1-0.6c0.4,0.1,0.7,0.6,0.6,1l-3.5,14.8c-0.2,0.6-0.5,1-1.1,1.2
				C470,106.7,469.9,106.7,469.6,106.7z"/>
		</g>
		<g>
			<path d="M479.6,112.5c-0.2,0-0.4,0-0.7-0.1c-0.6-0.2-0.9-0.7-1.1-1.2l-4.7-20.3c-0.1-0.4,0.2-0.9,0.6-1c0.4-0.1,0.9,0.2,1,0.6
				l4.7,20.3c0,0,0,0.1,0.1,0.1s0.1,0,0.1,0l4.1-2.9c0.3-0.2,0.8-0.3,1.2-0.2l5,0.7h0.1v-0.1l-4.5-19.5c-0.1-0.4,0.2-0.9,0.6-1
				c0.4-0.1,0.9,0.2,1,0.6l4.5,19.5c0.2,0.6,0,1.2-0.4,1.6s-1,0.7-1.6,0.6l-5-0.7l-4,2.9C480.3,112.4,480,112.5,479.6,112.5z"/>
		</g>
	</g>
	<g>
		<polygon points="473.7,73.4 467.6,67.2 468.8,66.1 473.7,71 483,61.8 484.2,62.9 		"/>
	</g>
</g>
</svg>
