<?xml version="1.0" encoding="utf-8"?>
<!-- Generator: Adobe Illustrator 23.0.1, SVG Export Plug-In . SVG Version: 6.00 Build 0)  -->
<svg version="1.1" id="Layer_1" xmlns="http://www.w3.org/2000/svg" xmlns:xlink="http://www.w3.org/1999/xlink" x="0px" y="0px"
	 viewBox="0 0 64 64" style="enable-background:new 0 0 64 64;" xml:space="preserve">
<g>
	<path fill="none" stroke="#000000" stroke-width="2" stroke-miterlimit="10" d="M33.9,41.1c-0.7,0-1.4-0.4-2-0.8c-0.4-0.2-0.9-0.6-1.2-0.6s-0.8,0.3-1.2,0.6c-0.7,0.4-1.5,0.9-2.3,0.7
		c-0.9-0.2-1.4-0.9-1.9-1.5c-0.3-0.4-0.6-0.8-0.9-0.9c-0.2-0.1-0.8,0-1.3,0.1c-0.9,0.2-1.8,0.2-2.4-0.1c-0.8-0.5-1-1.3-1.3-2.1
		c-0.2-0.5-0.3-1-0.6-1.2c-0.2-0.2-0.8-0.2-1.3-0.3c-0.8-0.1-1.7-0.2-2.2-1c-0.6-0.6-0.6-1.6-0.5-2.4c0-0.5,0-1-0.1-1.3
		c-0.2-0.2-0.6-0.5-1-0.7c-0.7-0.4-1.5-0.8-1.8-1.7c-0.3-0.8,0-1.7,0.3-2.4c0.2-0.5,0.4-1,0.3-1.3c-0.1-0.2-0.4-0.6-0.7-1
		c-0.6-0.6-1.1-1.3-1.1-2.2c0-0.9,0.6-1.6,1.1-2.2c0.3-0.3,0.6-0.8,0.7-1c0.1-0.3-0.2-0.8-0.3-1.3c-0.3-0.7-0.6-1.6-0.3-2.4
		c0.3-0.8,1.1-1.3,1.8-1.7c0.4-0.2,0.9-0.5,1-0.7c0.2-0.2,0.2-0.8,0.1-1.3c0-0.8-0.1-1.8,0.5-2.4s1.4-0.8,2.2-1
		c0.5-0.1,1-0.2,1.3-0.3c0.2-0.2,0.4-0.7,0.6-1.2c0.2-0.8,0.6-1.7,1.3-2.1c0.6-0.4,1.6-0.2,2.5-0.1c0.6,0.1,1,0.2,1.3,0.1
		c0.2-0.1,0.6-0.6,0.9-0.9c0.5-0.6,1.1-1.4,1.9-1.5s1.6,0.3,2.3,0.7c0.4,0.2,0.9,0.6,1.2,0.6s0.8-0.3,1.2-0.6
		c0.7-0.4,1.4-0.9,2.3-0.7c0.9,0.2,1.4,0.9,1.9,1.5c0.3,0.4,0.6,0.8,0.9,0.9s0.8,0,1.3-0.1c0.9-0.2,1.8-0.2,2.4,0.1
		c0.8,0.5,1,1.3,1.3,2.1c0.2,0.5,0.3,1,0.6,1.2c0.2,0.2,0.8,0.2,1.3,0.3c0.8,0.1,1.7,0.2,2.2,1c0.6,0.6,0.6,1.6,0.5,2.4
		c0,0.5,0,1,0.1,1.3c0.2,0.2,0.6,0.5,1,0.7c0.7,0.4,1.5,0.8,1.8,1.7c0.3,0.8,0,1.7-0.3,2.4c-0.2,0.5-0.4,1-0.3,1.3
		c0.1,0.2,0.4,0.6,0.7,1c0.6,0.6,1.1,1.3,1.1,2.2c0,0.9-0.6,1.6-1.1,2.2c-0.3,0.3-0.6,0.8-0.7,1c-0.1,0.3,0.2,0.8,0.3,1.3
		c0.3,0.7,0.6,1.6,0.3,2.4c-0.3,0.8-1.1,1.3-1.8,1.7c-0.4,0.2-0.9,0.5-1,0.7c-0.2,0.2-0.2,0.8-0.1,1.3c0,0.8,0.1,1.8-0.5,2.4
		s-1.4,0.8-2.2,1c-0.5,0.1-1,0.2-1.3,0.3c-0.2,0.2-0.4,0.7-0.6,1.2c-0.2,0.8-0.6,1.7-1.3,2.1c-0.6,0.4-1.6,0.2-2.5,0.1
		c-0.6-0.1-1-0.2-1.3-0.1c-0.2,0.1-0.6,0.6-0.9,0.9c-0.5,0.6-1.1,1.4-1.9,1.5C34.2,41.1,34,41.1,33.9,41.1z"/>
</g>
<g>
	<polygon fill="none" stroke="#000000" stroke-width="2" stroke-miterlimit="10" points="29.5,26.2 23.6,20.2 24.7,19 29.5,23.9 38.5,14.8 39.7,16 	"/>
</g>
<g>
	<path fill="none" stroke="#000000" stroke-width="2" stroke-miterlimit="10" d="M42.2,38.4c0.4-0.1,0.9,0.1,1,0.6L47.9,58c0.2,0.6,0,1.1-0.4,1.5c-0.4,0.4-0.9,0.7-1.5,0.6l-4.9-0.7l-3.9,2.9
		c-0.2,0.2-0.6,0.3-1,0.3c-0.2,0-0.4,0-0.6-0.1c-0.6-0.2-0.9-0.6-1.1-1.2l-4.9-19.9c-0.1-0.4,0.1-0.9,0.5-1"/>
</g>
<g>
	<g>
		<g>
			<path fill="none" stroke="#000000" stroke-width="2" stroke-miterlimit="10" d="M29.9,40.1c0.4,0.1,0.7,0.6,0.6,1l-3.4,14.5c-0.2,0.6-0.5,1-1,1.2c-0.2,0.1-0.3,0.1-0.6,0.1
				c-0.3,0-0.6-0.1-1-0.3l-4-2.8l-4.9,0.7c-0.6,0.1-1.1-0.1-1.5-0.6c-0.4-0.5-0.6-1-0.4-1.5l3.8-16.3c0.1-0.4,0.6-0.7,1-0.6"/>
		</g>
	</g>
</g>
</svg>
