<?xml version="1.0" encoding="utf-8"?>
<!-- Generator: Adobe Illustrator 23.0.1, SVG Export Plug-In . SVG Version: 6.00 Build 0)  -->
<svg version="1.1" id="Layer_1" xmlns="http://www.w3.org/2000/svg" xmlns:xlink="http://www.w3.org/1999/xlink" x="0px" y="0px"
	 viewBox="0 0 64 64" style="enable-background:new 0 0 64 64;" xml:space="preserve">
<style type="text/css">
	.st0{fill:none;stroke:#131313;stroke-miterlimit:10;}
	.st1{fill:none;stroke:#000000;stroke-miterlimit:10;}
</style>
<g>
	<path class="st1" d="M49.8,0.8c1.5,0.4,2.6,1.4,3.2,2.9c0.2,0.6,0.3,1.3,0.5,2c0.4,1.9,0.7,3.7,1.1,5.6c0.9,0,1.7,0,2.5,0
		c0,0,4.6-0.6,4.6,4.2c0,11.6,0,23.2,0,34.8c0,0.1-0.1,0.2-0.1,0.3c-0.7,2.5-2.3,3.8-4.8,3.8c-9.3,0-18.6,0-27.8,0
		c-0.3,0-0.6,0-0.8,0.4c-1.7,3.6-4.4,6-8,7.3c-1.1,0.4-2.2,0.6-3.3,0.8c-0.8,0-1.6,0-2.5,0c-0.1,0-0.3-0.1-0.4-0.1
		C8.7,61.9,4.9,59,2.8,53.8c-0.5-1.2-0.7-2.5-1-3.7c0-0.8,0-1.6,0-2.4c0-0.1,0.1-0.2,0.1-0.3c0.7-5,3.3-8.5,7.5-10.8
		c0.4-0.2,0.6-0.5,0.6-1c0-6.2,0-12.5,0-18.7c0-1.9,0.7-3.3,1.7-4.7c0.5-0.8,1.3-1.2,2.2-1.5c8.5-2.4,17-4.8,25.4-7.3
		c3.1-0.9,6.2-1.8,9.3-2.7C49.2,0.5,49.8,0.8,49.8,0.8z M16,60.3c0.4,0,1.1-0.1,1.8-0.2c8.2-1.3,12-11.6,6.8-18.3
		c-2.8-3.6-6.6-4.7-10.9-4.1c-6.5,1-10.7,7.6-9,14.2C6,57,10.4,60.3,16,60.3z"/>
</g>
<path class="st1" d="M14.4,50.2c-1.3,0-2.5,0-3.7,0c-0.5,0-1-0.3-1.2-0.8c-0.2-0.5-0.2-1,0.2-1.3c0.3-0.2,0.7-0.4,1.1-0.4
	c1-0.1,1.9,0,2.9,0c0.2,0,0.4,0,0.6,0c0-0.3,0-0.5,0-0.7c0-1,0-2.1,0-3.1c0-0.8,0.5-1.4,1.3-1.4c0.7,0,1.2,0.6,1.2,1.4
	c0,1.2,0,2.5,0,3.8c1.2,0,2.4,0,3.6,0c0.8,0,1.3,0.4,1.4,1.1c0.1,0.9-0.4,1.5-1.3,1.5c-1,0-1.9,0-2.9,0c-0.2,0-0.5,0-0.8,0
	c0,1.3,0,2.5,0,3.7c0,0.7-0.4,1.3-1,1.4c-0.8,0.2-1.5-0.4-1.5-1.3c0-1,0-2.1,0-3.1C14.4,50.7,14.4,50.5,14.4,50.2z"/>
<path class="st1" d="M51.1,32.9c0-0.1,0-0.3,0-0.5c0.2-1,1-1.7,1.9-1.7c0.9,0,1.6,0.8,1.8,1.8c0,0.4,0,0.7,0,1.1
	c-0.2,1-1,1.6-1.9,1.6c-0.9,0-1.6-0.8-1.8-1.8C51.1,33.2,51.1,33.1,51.1,32.9z"/>
<path class="st1" d="M59.1,38.6c0-3.8,0-7.5,0-11.3c-4.1,0-8.2,0-12.3,0c0,3.8,0,7.5,0,11.3C51,38.6,55,38.6,59.1,38.6z"/>
<path class="st1" d="M59.2,24.6c0-0.3,0-0.5,0-0.7c0-2.5,0-5.1,0-7.6c0-0.3,0-0.5-0.1-0.8c-0.2-1.2-0.7-1.7-1.9-1.7
	c-14.3,0-28.5,0-42.8,0c-1.3,0-1.9,0.6-1.9,1.9c0,0.2,0,0.5,0,0.7c0,6,0,12,0,18.1c0,0.2,0,0.4,0,0.7c4.8-1,9.1,0.2,12.6,3.6
	c3.6,3.5,4.9,7.8,4.1,12.8c0.1,0,0.2,0,0.3,0c9.3,0,18.7,0,28,0c0.9,0,1.4-0.5,1.6-1.4c0.1-0.4,0.1-0.7,0.1-1.1c0-2.5,0-4.9,0-7.4
	c0-0.2,0-0.4,0-0.6c-0.3,0-0.5,0-0.7,0c-4.2,0-8.3,0-12.5,0c-1.2,0-1.7-0.4-1.7-1.7c0-4.4,0-8.7,0-13.1c0-1.4,0.4-1.8,1.7-1.8
	c4.1,0,8.3,0,12.4,0C58.6,24.6,58.9,24.6,59.2,24.6z"/>
<path class="st1" d="M52.1,11.2c-0.5-2.3-0.9-4.6-1.4-6.9c-0.2-1-0.9-1.3-2.1-0.9C39.7,5.9,30.8,8.4,22,11c-0.2,0-0.3,0.1-0.5,0.2
	c0,0,0,0,0,0.1C31.6,11.2,41.8,11.2,52.1,11.2z"/>
</svg>
