<?xml version="1.0" encoding="utf-8"?>
<!-- Generator: Adobe Illustrator 23.0.1, SVG Export Plug-In . SVG Version: 6.00 Build 0)  -->
<svg version="1.1" id="Design" xmlns="http://www.w3.org/2000/svg" xmlns:xlink="http://www.w3.org/1999/xlink" x="0px" y="0px"
	 viewBox="0 0 160 160" style="enable-background:new 0 0 160 160;" xml:space="preserve">
<style type="text/css">
	.st0{fill:none;stroke:#1A1A1A;stroke-width:0.5;stroke-miterlimit:10;}
</style>
<g>
	<path d="M99.6,47.7c1.7,0.4,2.9,1.4,3.5,3c0.3,0.7,0.4,1.4,0.5,2.1c0.4,1.9,0.8,3.9,1.2,5.9c0.9,0,1.9,0,2.8,0c0,0,4.9-0.7,4.9,4.4
		c0,12.1,0,24.2,0,36.3c0,0.1-0.1,0.2-0.1,0.3c-0.7,2.6-2.5,3.9-5.2,3.9c-10.1,0-20.1,0-30.2,0c-0.4,0-0.6,0-0.9,0.4
		c-1.9,3.7-4.8,6.2-8.7,7.6c-1.1,0.4-2.4,0.6-3.5,0.9c-0.9,0-1.8,0-2.7,0c-0.1,0-0.3-0.1-0.4-0.1c-5.8-0.9-9.9-4-12.2-9.3
		c-0.5-1.2-0.7-2.6-1-3.9c0-0.8,0-1.7,0-2.5c0-0.1,0.1-0.2,0.1-0.4c0.8-5.2,3.6-8.9,8.2-11.3c0.5-0.3,0.7-0.5,0.7-1
		c0-6.5,0-13,0-19.5c0-1.9,0.8-3.4,1.8-4.9c0.6-0.8,1.4-1.3,2.4-1.6c9.2-2.5,18.4-5.1,27.6-7.6c3.4-0.9,6.7-1.9,10.1-2.8
		C98.9,47.4,99.6,47.7,99.6,47.7z M109.8,72.6c0-0.3,0-0.5,0-0.7c0-2.6,0-5.3,0-7.9c0-0.3,0-0.5-0.1-0.8c-0.2-1.3-0.8-1.8-2.1-1.8
		c-15.5,0-30.9,0-46.4,0c-1.4,0-2,0.6-2.1,2c0,0.3,0,0.5,0,0.8c0,6.3,0,12.6,0,18.8c0,0.2,0,0.5,0,0.7c5.2-1,9.8,0.2,13.7,3.8
		c3.9,3.6,5.3,8.1,4.4,13.3c0.1,0,0.2,0,0.3,0c10.1,0,20.3,0,30.4,0c0.9,0,1.5-0.5,1.7-1.4c0.1-0.4,0.1-0.8,0.1-1.1
		c0-2.6,0-5.2,0-7.7c0-0.2,0-0.4,0-0.7c-0.3,0-0.6,0-0.8,0c-4.5,0-9.1,0-13.6,0c-1.3,0-1.8-0.5-1.8-1.8c0-4.5,0-9.1,0-13.6
		c0-1.4,0.4-1.9,1.8-1.9c4.5,0,9,0,13.4,0C109.2,72.6,109.4,72.6,109.8,72.6z M62.9,109.8c0.4,0,1.2-0.1,1.9-0.2
		c8.9-1.4,13-12.1,7.4-19.1c-3.1-3.8-7.2-5-11.9-4.3c-7.1,1-11.6,7.9-9.7,14.8C52.1,106.3,56.8,109.8,62.9,109.8z M102,58.6
		c-0.5-2.4-1-4.8-1.6-7.2c-0.3-1.1-1-1.3-2.2-1c-9.6,2.6-19.2,5.3-28.9,8c-0.2,0.1-0.4,0.1-0.5,0.2c0,0,0,0,0,0.1
		C79.9,58.6,90.9,58.6,102,58.6z M109.7,87.1c0-4,0-7.9,0-11.8c-4.5,0-8.9,0-13.3,0c0,3.9,0,7.8,0,11.8
		C100.8,87.1,105.2,87.1,109.7,87.1z"/>
	<path d="M61.2,99.3c-1.4,0-2.7,0-4,0c-0.6,0-1.1-0.3-1.3-0.8c-0.2-0.5-0.2-1.1,0.2-1.4c0.3-0.3,0.8-0.4,1.2-0.5c1-0.1,2.1,0,3.1,0
		c0.2,0,0.4,0,0.7,0c0-0.3,0-0.5,0-0.7c0-1.1,0-2.2,0-3.2c0-0.9,0.6-1.4,1.4-1.4c0.8,0,1.3,0.6,1.3,1.5c0,1.3,0,2.6,0,3.9
		c1.3,0,2.6,0,3.9,0c0.8,0,1.4,0.4,1.5,1.1c0.2,0.9-0.4,1.6-1.4,1.6c-1,0-2.1,0-3.1,0c-0.2,0-0.5,0-0.8,0c0,1.3,0,2.6,0,3.9
		c0,0.8-0.4,1.3-1.1,1.4c-0.9,0.2-1.6-0.4-1.6-1.3c0-1.1,0-2.2,0-3.2C61.2,99.8,61.2,99.6,61.2,99.3z"/>
	<path d="M101,81.2c0-0.2,0-0.3,0.1-0.5c0.2-1.1,1.1-1.8,2-1.8c0.9,0,1.8,0.8,1.9,1.9c0.1,0.4,0,0.8,0,1.1c-0.2,1-1.1,1.7-2,1.7
		c-0.9,0-1.8-0.9-1.9-1.9C101,81.5,101.1,81.4,101,81.2z"/>
</g>
</svg>
