<?xml version="1.0" encoding="utf-8"?>
<!-- Generator: Adobe Illustrator 23.0.1, SVG Export Plug-In . SVG Version: 6.00 Build 0)  -->
<svg version="1.1" id="Layer_1" xmlns="http://www.w3.org/2000/svg" xmlns:xlink="http://www.w3.org/1999/xlink" x="0px" y="0px"
	 viewBox="0 0 64 64" style="enable-background:new 0 0 64 64;" xml:space="preserve">
<style type="text/css">
	.st0{fill:none;stroke:#131313;stroke-miterlimit:10;}
</style>
<path class="st0" d="M15.6,2.8H1.4v14.2 M62.8,16.9V2.8H48.6 M1.4,47.8v14.2h14.2 M48.6,61.9h14.2V47.8"/>
<path class="st0" d="M54.3,18.8c0,0-0.1-1.4-1.4-1.4H10.3c-1.3,0-1.4,1.4-1.4,1.4V23h45.4L54.3,18.8L54.3,18.8z"/>
<path class="st0" d="M8.9,43.3c0,1.3,1.5,2.4,2.8,2.4h39.7c1.3,0,2.8-1.5,2.8-2.8V28.7H8.9L8.9,43.3z"/>
<path class="st0" d="M11.8,31.5h39.7v9.9c0,0-0.1,1.4-1.4,1.4H13.2c-1.3,0-1.4-1.4-1.4-1.4L11.8,31.5L11.8,31.5z"/>
<rect x="42.9" y="34.4" class="st0" width="5.7" height="5.7"/>
</svg>
