<?xml version="1.0" encoding="utf-8"?>
<!-- Generator: Adobe Illustrator 23.0.1, SVG Export Plug-In . SVG Version: 6.00 Build 0)  -->
<svg version="1.1" id="Layer_1" xmlns="http://www.w3.org/2000/svg" xmlns:xlink="http://www.w3.org/1999/xlink" x="0px" y="0px"
	 viewBox="0 0 64 64" style="enable-background:new 0 0 64 64;" xml:space="preserve">
<style type="text/css">
	.st0{fill:none;stroke:#131313;stroke-miterlimit:10;}
	.st1{fill:none;stroke:#000000;stroke-miterlimit:10;}
</style>
<path class="st0" d="M-63.2,2.8h-14.2v14.2 M-16.1,16.9V2.8h-14.2 M-77.4,47.8v14.2h14.2 M-30.2,61.9h14.2V47.8"/>
<path class="st0" d="M-24.6,18.8c0,0-0.1-1.4-1.4-1.4h-42.5c-1.3,0-1.4,1.4-1.4,1.4V23h45.4L-24.6,18.8L-24.6,18.8z"/>
<path class="st0" d="M-69.9,43.3c0,1.3,1.5,2.4,2.8,2.4h39.7c1.3,0,2.8-1.5,2.8-2.8V28.7h-45.4L-69.9,43.3z"/>
<path class="st0" d="M-67.1,31.5h39.7v9.9c0,0-0.1,1.4-1.4,1.4h-36.9c-1.3,0-1.4-1.4-1.4-1.4L-67.1,31.5L-67.1,31.5z"/>
<rect x="-35.9" y="34.4" class="st0" width="5.7" height="5.7"/>
<g>
	<path class="st1" d="M115.2,1c1.5,0.4,2.6,1.4,3.2,2.9c0.2,0.6,0.3,1.3,0.5,2c0.4,1.9,0.7,3.7,1.1,5.6c0.9,0,1.7,0,2.5,0
		c0,0,4.6-0.6,4.6,4.2c0,11.6,0,23.2,0,34.8c0,0.1-0.1,0.2-0.1,0.3c-0.7,2.5-2.3,3.8-4.8,3.8c-9.3,0-18.6,0-27.8,0
		c-0.3,0-0.6,0-0.8,0.4c-1.7,3.6-4.4,6-8,7.3c-1.1,0.4-2.2,0.6-3.3,0.8c-0.8,0-1.6,0-2.5,0c-0.1,0-0.3-0.1-0.4-0.1
		c-5.3-0.8-9.1-3.8-11.3-8.9c-0.5-1.2-0.7-2.5-1-3.7c0-0.8,0-1.6,0-2.4c0-0.1,0.1-0.2,0.1-0.3c0.7-5,3.3-8.5,7.5-10.8
		c0.4-0.2,0.6-0.5,0.6-1c0-6.2,0-12.5,0-18.7c0-1.9,0.7-3.3,1.7-4.7c0.5-0.8,1.3-1.2,2.2-1.5c8.5-2.4,17-4.8,25.4-7.3
		c3.1-0.9,6.2-1.8,9.3-2.7C114.6,0.8,115.2,1,115.2,1z M81.4,60.5c0.4,0,1.1-0.1,1.8-0.2c8.2-1.3,12-11.6,6.8-18.3
		c-2.8-3.6-6.6-4.7-10.9-4.1c-6.5,1-10.7,7.6-9,14.2C71.4,57.2,75.8,60.6,81.4,60.5z"/>
</g>
<path class="st1" d="M79.8,50.5c-1.3,0-2.5,0-3.7,0c-0.5,0-1-0.3-1.2-0.8c-0.2-0.5-0.2-1,0.2-1.3c0.3-0.2,0.7-0.4,1.1-0.4
	c1-0.1,1.9,0,2.9,0c0.2,0,0.4,0,0.6,0c0-0.3,0-0.5,0-0.7c0-1,0-2.1,0-3.1c0-0.8,0.5-1.4,1.3-1.4c0.7,0,1.2,0.6,1.2,1.4
	c0,1.2,0,2.5,0,3.8c1.2,0,2.4,0,3.6,0c0.8,0,1.3,0.4,1.4,1.1c0.1,0.9-0.4,1.5-1.3,1.5c-1,0-1.9,0-2.9,0c-0.2,0-0.5,0-0.8,0
	c0,1.3,0,2.5,0,3.7c0,0.7-0.4,1.3-1,1.4c-0.8,0.2-1.5-0.4-1.5-1.3c0-1,0-2.1,0-3.1C79.8,51,79.8,50.8,79.8,50.5z"/>
<path class="st1" d="M116.6,33.1c0-0.1,0-0.3,0-0.5c0.2-1,1-1.7,1.9-1.7c0.9,0,1.6,0.8,1.8,1.8c0,0.4,0,0.7,0,1.1
	c-0.2,1-1,1.6-1.9,1.6c-0.9,0-1.6-0.8-1.8-1.8C116.6,33.5,116.6,33.3,116.6,33.1z"/>
<path class="st1" d="M124.6,38.8c0-3.8,0-7.5,0-11.3c-4.1,0-8.2,0-12.3,0c0,3.8,0,7.5,0,11.3C116.4,38.8,120.5,38.8,124.6,38.8z"/>
<path class="st1" d="M124.6,24.9c0-0.3,0-0.5,0-0.7c0-2.5,0-5.1,0-7.6c0-0.3,0-0.5-0.1-0.8c-0.2-1.2-0.7-1.7-1.9-1.7
	c-14.3,0-28.5,0-42.8,0c-1.3,0-1.9,0.6-1.9,1.9c0,0.2,0,0.5,0,0.7c0,6,0,12,0,18.1c0,0.2,0,0.4,0,0.7c4.8-1,9.1,0.2,12.6,3.6
	c3.6,3.5,4.9,7.8,4.1,12.8c0.1,0,0.2,0,0.3,0c9.3,0,18.7,0,28,0c0.9,0,1.4-0.5,1.6-1.4c0.1-0.4,0.1-0.7,0.1-1.1c0-2.5,0-4.9,0-7.4
	c0-0.2,0-0.4,0-0.6c-0.3,0-0.5,0-0.7,0c-4.2,0-8.3,0-12.5,0c-1.2,0-1.7-0.4-1.7-1.7c0-4.4,0-8.7,0-13.1c0-1.4,0.4-1.8,1.7-1.8
	c4.1,0,8.3,0,12.4,0C124.1,24.9,124.3,24.9,124.6,24.9z"/>
<path class="st1" d="M117.5,11.5c-0.5-2.3-0.9-4.6-1.4-6.9c-0.2-1-0.9-1.3-2.1-0.9c-8.9,2.5-17.7,5.1-26.6,7.6
	c-0.2,0-0.3,0.1-0.5,0.2c0,0,0,0,0,0.1C97.1,11.5,107.2,11.5,117.5,11.5z"/>
<g>
	<path class="st1" d="M33.9,41.1c-0.7,0-1.4-0.4-2-0.8c-0.4-0.2-0.9-0.6-1.2-0.6s-0.8,0.3-1.2,0.6c-0.7,0.4-1.5,0.9-2.3,0.7
		c-0.9-0.2-1.4-0.9-1.9-1.5c-0.3-0.4-0.6-0.8-0.9-0.9c-0.2-0.1-0.8,0-1.3,0.1c-0.9,0.2-1.8,0.2-2.4-0.1c-0.8-0.5-1-1.3-1.3-2.1
		c-0.2-0.5-0.3-1-0.6-1.2c-0.2-0.2-0.8-0.2-1.3-0.3c-0.8-0.1-1.7-0.2-2.2-1c-0.6-0.6-0.6-1.6-0.5-2.4c0-0.5,0-1-0.1-1.3
		c-0.2-0.2-0.6-0.5-1-0.7c-0.7-0.4-1.5-0.8-1.8-1.7c-0.3-0.8,0-1.7,0.3-2.4c0.2-0.5,0.4-1,0.3-1.3c-0.1-0.2-0.4-0.6-0.7-1
		c-0.6-0.6-1.1-1.3-1.1-2.2c0-0.9,0.6-1.6,1.1-2.2c0.3-0.3,0.6-0.8,0.7-1c0.1-0.3-0.2-0.8-0.3-1.3c-0.3-0.7-0.6-1.6-0.3-2.4
		c0.3-0.8,1.1-1.3,1.8-1.7c0.4-0.2,0.9-0.5,1-0.7c0.2-0.2,0.2-0.8,0.1-1.3c0-0.8-0.1-1.8,0.5-2.4s1.4-0.8,2.2-1
		c0.5-0.1,1-0.2,1.3-0.3c0.2-0.2,0.4-0.7,0.6-1.2c0.2-0.8,0.6-1.7,1.3-2.1c0.6-0.4,1.6-0.2,2.5-0.1c0.6,0.1,1,0.2,1.3,0.1
		c0.2-0.1,0.6-0.6,0.9-0.9c0.5-0.6,1.1-1.4,1.9-1.5s1.6,0.3,2.3,0.7c0.4,0.2,0.9,0.6,1.2,0.6s0.8-0.3,1.2-0.6
		c0.7-0.4,1.4-0.9,2.3-0.7c0.9,0.2,1.4,0.9,1.9,1.5c0.3,0.4,0.6,0.8,0.9,0.9s0.8,0,1.3-0.1c0.9-0.2,1.8-0.2,2.4,0.1
		c0.8,0.5,1,1.3,1.3,2.1c0.2,0.5,0.3,1,0.6,1.2c0.2,0.2,0.8,0.2,1.3,0.3c0.8,0.1,1.7,0.2,2.2,1c0.6,0.6,0.6,1.6,0.5,2.4
		c0,0.5,0,1,0.1,1.3c0.2,0.2,0.6,0.5,1,0.7c0.7,0.4,1.5,0.8,1.8,1.7c0.3,0.8,0,1.7-0.3,2.4c-0.2,0.5-0.4,1-0.3,1.3
		c0.1,0.2,0.4,0.6,0.7,1c0.6,0.6,1.1,1.3,1.1,2.2c0,0.9-0.6,1.6-1.1,2.2c-0.3,0.3-0.6,0.8-0.7,1c-0.1,0.3,0.2,0.8,0.3,1.3
		c0.3,0.7,0.6,1.6,0.3,2.4c-0.3,0.8-1.1,1.3-1.8,1.7c-0.4,0.2-0.9,0.5-1,0.7c-0.2,0.2-0.2,0.8-0.1,1.3c0,0.8,0.1,1.8-0.5,2.4
		s-1.4,0.8-2.2,1c-0.5,0.1-1,0.2-1.3,0.3c-0.2,0.2-0.4,0.7-0.6,1.2c-0.2,0.8-0.6,1.7-1.3,2.1c-0.6,0.4-1.6,0.2-2.5,0.1
		c-0.6-0.1-1-0.2-1.3-0.1c-0.2,0.1-0.6,0.6-0.9,0.9c-0.5,0.6-1.1,1.4-1.9,1.5C34.2,41.1,34,41.1,33.9,41.1z"/>
</g>
<g>
	<polygon points="29.5,26.2 23.6,20.2 24.7,19 29.5,23.9 38.5,14.8 39.7,16 	"/>
</g>
<g>
	<path class="st1" d="M42.2,38.4c0.4-0.1,0.9,0.1,1,0.6L47.9,58c0.2,0.6,0,1.1-0.4,1.5c-0.4,0.4-0.9,0.7-1.5,0.6l-4.9-0.7l-3.9,2.9
		c-0.2,0.2-0.6,0.3-1,0.3c-0.2,0-0.4,0-0.6-0.1c-0.6-0.2-0.9-0.6-1.1-1.2l-4.9-19.9c-0.1-0.4,0.1-0.9,0.5-1"/>
</g>
<g>
	<g>
		<g>
			<path class="st1" d="M19,36.5"/>
			<path class="st1" d="M29.9,40.1c0.4,0.1,0.7,0.6,0.6,1l-3.4,14.5c-0.2,0.6-0.5,1-1,1.2c-0.2,0.1-0.3,0.1-0.6,0.1
				c-0.3,0-0.6-0.1-1-0.3l-4-2.8l-4.9,0.7c-0.6,0.1-1.1-0.1-1.5-0.6c-0.4-0.5-0.6-1-0.4-1.5l3.8-16.3c0.1-0.4,0.6-0.7,1-0.6"/>
		</g>
	</g>
</g>
</svg>
